# xmcd CD database file
#
# Track frame offsets:
#	150
#	17567
#	37437
#
# Disc length: 721 seconds
#
# Revision: 5
# Processed by: cddbd v1.5.1PL0 Copyright (c) Steve Scherf et al.
# Submitted via: CDex 1.51
#
DISCID=2102cf03
DTITLE=The Wildhearts - Top Of The World [CD 1] (Single)
DYEAR=2003
DGENRE=Rock
TTITLE0=Top Of The World
TTITLE1=6:30 Onwards
TTITLE2=Eager To Leave 'Er
EXTD=YEAR: 2003
EXTT0=
EXTT1=
EXTT2=Live Acoustic Version/Previously Unreleased
PLAYORDER=
